<svg xmlns="http://www.w3.org/2000/svg" width="162" height="117" viewBox="0 0 162 117"><path d="M182.146,335.56V311.452c0-9.761-8.169-17.572-20.958-17.572-12.877,0-20.991,7.811-20.991,17.572V335.56c0,7.535,4.756,13.873,12.757,16.435H147.9l-11.286,58.294h17.037l1.353-7.857h6.777l1.132,7.857h18.442L170,351.788c7.6-2.686,12.142-8.891,12.142-16.228m-23.869-25.636a2.911,2.911,0,1,1,5.821,0v27.163a2.911,2.911,0,1,1-5.821,0ZM155.5,391.866l3.418-21.835,2.7,21.835Zm53.3-77.294H202.2V294.634H184.163V352H171.771l13.2,34.661v23.633h17.413V386.656l13.592-33.986H226.9V294.634h-18.09Zm-18.565,38.106h8.3l-3.608,21.154ZM202.2,329.87h6.61V352H202.2Zm-63.963,62.917c0,11.156-7.44,18.093-19.42,18.093H109V394.934h8.97a2.1,2.1,0,0,0,2.184-2.34v-39.36c-.442.02-.887.033-1.342.033H109V337.32h8.97a2.1,2.1,0,0,0,2.184-2.34V294.634h18.078v40.539c0,8.354-4.172,14.341-11.3,16.823h11.3ZM271,294.634V352.67H256l-10.4-25.127V352.67h-16.22V294.634H244.97l9.894,23.726V294.634Z" transform="translate(-109 -293.88)" fill="#232c64"/><path d="M248.89,392.508c-2.073,0-3.589-1.253-3.589-3.133v-4.433c0-1.879,1.516-3.133,3.589-3.133a2.91,2.91,0,0,1,3.218,2.95V385.9h-2.46v-1.162c0-.4-.263-.672-.758-.672s-.758.275-.758.672v4.83c0,.4.263.672.758.672s.758-.274.758-.672v-1.162h2.46v1.147a2.91,2.91,0,0,1-3.218,2.95m7.612,0c-1.965,0-3.466-1.192-3.466-2.95v-4.8c0-1.758,1.5-2.935,3.466-2.935,1.949,0,3.45,1.177,3.45,2.935v4.8c0,1.757-1.5,2.95-3.45,2.95m.619-7.9a.566.566,0,0,0-.619-.535.578.578,0,0,0-.634.535v5.105a.578.578,0,0,0,.634.535.566.566,0,0,0,.619-.535Zm3.914,7.642V382.068h2.77v7.871h2.955v2.308Zm6.5,0V382.068H270.3v7.871h2.955v2.308Zm6.5,0V382.068h5.895v2.216H276.8v1.788h2.026V388H276.8v1.9h3.125v2.353Zm12.179,0-.31-.993a2.3,2.3,0,0,1-2.073,1.253,2.861,2.861,0,0,1-3.064-2.812V384.62c0-1.375,1.408-2.8,3.512-2.8s3.42,1.421,3.42,2.8V385.9H285.02v-1.253c0-.336-.232-.581-.7-.581s-.711.245-.711.581v4.982a.663.663,0,0,0,.742.611c.479,0,.743-.274.743-.611v-.887h-.773V387.1h3.42v5.151Zm2.632,0V382.068h5.894v2.216h-3.126v1.788h2.027V388h-2.027v1.9h3.126v2.353ZM248.767,404.68c-1.965,0-3.466-1.191-3.466-2.949v-4.8c0-1.757,1.5-2.935,3.466-2.935,1.949,0,3.45,1.177,3.45,2.935v4.8c0,1.758-1.5,2.949-3.45,2.949m.618-7.9a.565.565,0,0,0-.618-.534.579.579,0,0,0-.635.534v5.106a.579.579,0,0,0,.635.535.565.565,0,0,0,.618-.535Zm6.684-.442v1.941h2v2.094h-2v4.051H253.3v-10.18h5.724v2.094Zm-7.178,20.518c-2.073,0-3.589-1.253-3.589-3.133v-4.433c0-1.879,1.516-3.133,3.589-3.133a2.911,2.911,0,0,1,3.218,2.951v1.146h-2.46v-1.162c0-.4-.263-.672-.758-.672s-.758.275-.758.672v4.831c0,.4.263.672.758.672s.758-.274.758-.672v-1.162h2.46V413.9a2.91,2.91,0,0,1-3.218,2.95m8.866-.26c-.434,0-.65-.841-.65-1.575v-1.682a.638.638,0,0,0-.589-.657h-.635v3.914h-2.768v-10.18h3.93a2.447,2.447,0,0,1,2.6,2.323v1.5a1.648,1.648,0,0,1-1.082,1.438,1.705,1.705,0,0,1,1.129,1.452V414.9a4.48,4.48,0,0,0,.355,1.65v.046Zm-.727-7.612c0-.367-.156-.5-.465-.5h-.681v2.354h.681c.31,0,.465-.138.465-.5Zm3.775-2.567h2.769v10.18H260.8Zm10.692,10.18v-6.4l-.511,2.6-.836,3.806h-1.7l-.774-3.806-.465-2.6v6.4h-2.474v-10.18h3.636l.834,3.989.264,1.528.278-1.528.805-3.989h3.62v10.18Zm3.838-10.18H278.1v10.18h-2.769Zm8.725,10.18-1.607-3.316-.712-1.468v4.785h-2.476v-10.18h2.4l1.547,3.408.665,1.468v-4.876h2.46v10.18Zm7.474,0-.185-1.421h-1.641l-.232,1.421h-2.521l2.089-10.18h3.219l2.042,10.18Zm-.913-6.741-.587,3.439h1.052Zm4.333,6.741v-10.18h2.769v7.872h2.955v2.308Zm-46.681,12.433a2.957,2.957,0,0,1-3.264-2.95v-1.361h2.646v1.514a.625.625,0,0,0,1.238,0v-7.642h2.769v7.49c0,1.757-1.423,2.95-3.388,2.95m7.892,0c-1.934,0-3.4-1.253-3.4-2.782v-7.658h2.8v7.642a.56.56,0,0,0,.6.535.57.57,0,0,0,.633-.535v-7.642h2.677v7.658c0,1.528-1.345,2.782-3.31,2.782m7.582,0c-2.105,0-3.373-1.085-3.373-2.9v-.551h2.413v.49a.787.787,0,0,0,.836.84c.525,0,.772-.29.772-.825,0-.627-.757-1.07-1.608-1.605-1.1-.673-2.336-1.5-2.336-3a3.124,3.124,0,0,1,3.373-3.134,2.915,2.915,0,0,1,3.078,2.89v.428h-2.413v-.474a.663.663,0,0,0-.665-.718.705.705,0,0,0-.727.734c0,.626.758,1.054,1.608,1.589,1.1.688,2.352,1.528,2.352,3.087a3.126,3.126,0,0,1-3.309,3.149m8.246-8.178v7.917h-2.77v-7.917h-1.934v-2.262h6.653v2.262Zm2.723-2.262h2.77v10.179h-2.77Zm7.442,10.439c-2.073,0-3.59-1.253-3.59-3.134v-4.432c0-1.879,1.517-3.133,3.59-3.133a2.91,2.91,0,0,1,3.218,2.951v1.145h-2.46v-1.161c0-.4-.263-.672-.758-.672s-.758.275-.758.672v4.83c0,.4.264.672.758.672s.758-.275.758-.672V424.93h2.46v1.147a2.91,2.91,0,0,1-3.218,2.95m4.225-.26V418.588h5.894V420.8h-3.125v1.789h2.026v1.926h-2.026v1.9h3.125v2.354Z" transform="translate(-138.677 -312.346)" fill="#0098cf"/></svg>